<?xml version="1.0" encoding="UTF-8" standalone="no"?>
<!-- Created with Inkscape (http://www.inkscape.org/) -->

<svg
   xmlns:dc="http://purl.org/dc/elements/1.1/"
   xmlns:cc="http://creativecommons.org/ns#"
   xmlns:rdf="http://www.w3.org/1999/02/22-rdf-syntax-ns#"
   xmlns:svg="http://www.w3.org/2000/svg"
   xmlns="http://www.w3.org/2000/svg"
   xmlns:sodipodi="http://sodipodi.sourceforge.net/DTD/sodipodi-0.dtd"
   xmlns:inkscape="http://www.inkscape.org/namespaces/inkscape"
   version="1.0"
   width="1015.1508"
   height="306.14456"
   id="svg26043"
   sodipodi:version="0.32"
   inkscape:version="0.48.4 r9939"
   sodipodi:docname="KiKA HD.svg"
   inkscape:output_extension="org.inkscape.output.svg.inkscape">
  <metadata
     id="metadata16">
    <rdf:RDF>
      <cc:Work
         rdf:about="">
        <dc:format>image/svg+xml</dc:format>
        <dc:type
           rdf:resource="http://purl.org/dc/dcmitype/StillImage" />
      </cc:Work>
    </rdf:RDF>
  </metadata>
  <sodipodi:namedview
     inkscape:window-height="823"
     inkscape:window-width="1432"
     inkscape:pageshadow="2"
     inkscape:pageopacity="0"
     guidetolerance="10.0"
     gridtolerance="10.0"
     objecttolerance="10.0"
     borderopacity="1.0"
     bordercolor="#666666"
     pagecolor="#ffff8b"
     id="base"
     showgrid="false"
     inkscape:zoom="0.94401146"
     inkscape:cx="642.77732"
     inkscape:cy="28.872552"
     inkscape:window-x="0"
     inkscape:window-y="25"
     inkscape:current-layer="svg26043"
     fit-margin-top="0"
     fit-margin-left="0"
     fit-margin-right="0"
     fit-margin-bottom="0"
     inkscape:window-maximized="0" />
  <defs
     id="defs26045" />
  <g
     id="g2808"
     transform="matrix(27.708643,0,0,-27.708643,0,155.5397)"
     style="fill:#ffffff">
    <path
       inkscape:connector-curvature="0"
       d="m 0,0 0.004,-3.633 c 0,0 -0.065,-0.371 0.351,-0.329 0.331,0.013 0.663,0.011 0.942,0.011 0.322,10e-4 0.681,-0.003 1.046,-0.002 0.231,-0.003 0.267,0.152 0.267,0.152 l 0.07,2.053 c 0,0 -0.009,0.08 0.013,0.146 0.022,0.067 0.068,0.13 0.068,0.13 l 0.975,0.866 c 0,0 0.145,0.093 0.295,0.092 0.115,0.005 0.174,-0.071 0.253,-0.112 0.643,-0.583 1.128,-2.101 1.601,-3.082 0.246,-0.487 0.292,-0.499 0.706,-0.482 0.386,0.011 1.909,0.038 2.473,0.018 0.114,-0.005 0.354,-0.008 0.423,0.128 0.093,0.187 -0.026,0.435 -0.026,0.435 L 6.823,1.419 c 0,0 -0.121,0.25 -0.136,0.348 -0.016,0.108 0.129,0.282 0.129,0.282 l 2.613,3.175 c 0,0 0.119,0.164 0.025,0.262 C 9.368,5.576 9.206,5.571 9.206,5.571 L 6.655,5.528 c 0,0 -0.15,0 -0.191,-0.021 C 6.377,5.464 6.322,5.397 6.322,5.397 L 3.472,2.302 c 0,0 -0.12,-0.079 -0.224,-0.049 C 3.12,2.291 3.099,2.412 3.099,2.412 L 3.066,5.199 c 0,0 0.007,0.18 -0.058,0.258 -0.048,0.058 -0.155,0.06 -0.155,0.06 l -2.61,-0.04 c 0,0 -0.06,0.012 -0.145,-0.051 C -0.018,5.341 0.011,5.219 0.011,5.219 L 0,0 z"
       style="fill:#ffffff;fill-opacity:1;fill-rule:nonzero;stroke:none"
       id="path2810" />
  </g>
  <g
     id="g2812"
     transform="matrix(27.708643,0,0,-27.708643,490.05506,168.59047)"
     style="fill:#ffffff">
    <path
       inkscape:connector-curvature="0"
       d="m 0,0 0.026,-3.277 c 0,0 -0.054,-0.468 0.39,-0.415 0.326,0.006 0.626,0.008 0.904,0.009 0.227,0 0.465,-0.003 0.712,-0.009 0.669,-0.071 0.58,0.476 0.58,0.476 l 0.032,1.642 c 0,0 0.004,0.148 0.03,0.222 0.023,0.073 0.107,0.121 0.107,0.121 l 0.884,0.871 c 0,0 0.428,0.324 0.7,-0.091 0.465,-0.72 0.955,-1.582 1.522,-3.006 0.082,-0.147 0.124,-0.453 0.573,-0.399 0.338,-0.002 0.651,0.009 0.956,0.009 0.548,10e-4 1.087,0.027 1.626,0.003 0.784,0 0.369,0.602 0.369,0.602 L 6.822,1.692 c 0,0 -0.132,0.245 -0.141,0.326 -0.016,0.164 0.162,0.385 0.162,0.385 l 2.401,2.894 c 0,0 0.281,0.349 0.26,0.427 C 9.455,5.903 9.062,5.846 9.062,5.846 L 6.75,5.843 C 6.75,5.843 6.461,5.87 6.406,5.81 6.333,5.728 6.136,5.524 6.136,5.524 L 3.625,2.733 c 0,0 -0.302,-0.338 -0.384,-0.334 C 3.053,2.406 3.102,2.766 3.102,2.766 L 3.064,5.315 c 0,0 0.017,0.278 -0.081,0.384 C 2.881,5.81 2.526,5.828 2.526,5.828 L 0.385,5.819 c 0,0 -0.151,0.025 -0.286,-0.074 C -0.024,5.654 -0.015,5.499 -0.015,5.499 L 0,0 z"
       style="fill:#ffffff;fill-opacity:1;fill-rule:nonzero;stroke:none"
       id="path2814" />
  </g>
  <g
     id="g2816"
     transform="matrix(27.708643,0,0,-27.708643,864.10512,140.95387)"
     style="fill:#ffffff">
    <path
       inkscape:connector-curvature="0"
       d="M 0,0 C 0,0 -0.063,-0.349 0.042,-0.466 0.1,-0.531 0.251,-0.558 0.251,-0.558 L 0.916,-0.56 c 0,0 0.322,-0.004 0.394,0.109 0.072,0.113 -0.005,0.444 -0.005,0.444 L 0.908,1.48 0.722,2.157 c 0,0 -0.064,0.166 -0.161,0.144 C 0.468,2.282 0.424,2.165 0.424,2.165 L 0,0 z m -3.391,-4.851 c 0,0 -0.185,0.029 -0.218,0.179 -0.05,0.227 0.054,0.567 0.054,0.567 l 1.237,3.897 1.384,4.667 c 0,0 0.111,0.437 0.19,0.533 0.091,0.111 0.424,0.089 0.424,0.089 l 2.333,0.006 c 0,0 0.447,0.001 0.597,-0.292 C 2.676,4.666 2.795,4.262 2.795,4.262 l 2.539,-8.15 c 0,0 0.174,-0.601 0.098,-0.759 -0.104,-0.219 -0.58,-0.179 -0.58,-0.179 L 2.538,-4.834 c 0,0 -0.344,-0.035 -0.446,0.058 C 1.99,-4.683 1.9,-4.268 1.9,-4.268 l -0.218,1.061 c 0,0 -0.042,0.286 -0.121,0.357 -0.079,0.071 -0.327,0.079 -0.327,0.079 l -1.401,0.028 c 0,0 -0.252,0.014 -0.404,-0.106 -0.121,-0.097 -0.173,-0.324 -0.173,-0.324 L -1.152,-4.44 c 0,0 -0.102,-0.317 -0.195,-0.373 -0.093,-0.055 -0.502,-0.046 -0.502,-0.046 l -1.542,0.008 z"
       style="fill:#ffffff;fill-opacity:1;fill-rule:nonzero;stroke:none"
       id="path2818" />
  </g>
  <g
     id="g2820"
     transform="matrix(27.708643,0,0,-27.708643,309.77986,128.06381)">
    <path
       inkscape:connector-curvature="0"
       d="m 0,0 -1.441,-4.063 c 0,0 -0.081,-0.299 -0.032,-0.4 0.09,-0.188 0.286,-0.27 0.286,-0.27 L 0.43,-5.202 c 0,0 0.495,-0.152 0.623,-0.124 0.261,0.057 0.361,0.4 0.361,0.4 l 1.487,4.423 1.027,2.792 c 0,0 0.106,0.2 0.073,0.273 -0.058,0.13 -0.226,0.157 -0.226,0.157 l -2.039,0.78 c 0,0 -0.245,0.069 -0.343,0.049 C 1.115,3.49 1.029,3.146 1.029,3.146 L 0,0 z"
       style="fill:#ffffff;fill-opacity:1;fill-rule:nonzero;stroke:none"
       id="path2822" />
  </g>
  <path
     style="fill:#cccccc;fill-opacity:1;fill-rule:nonzero;stroke:none"
     d="M 436.34375 144.1875 C 391.622 144.24292 355.4169 180.52825 355.5 225.25 C 355.55542 269.97175 391.872 306.21165 436.59375 306.15625 C 481.3155 306.10083 517.4929 269.78425 517.4375 225.0625 C 517.38208 180.34075 481.0655 144.1321 436.34375 144.1875 z M 399 170.3125 C 399.77585 170.3402 400.31791 170.5 401.09375 170.5 C 400.81666 170.77709 400.59729 170.95583 400.625 171.34375 C 400.5973 172.03646 401.08853 172.71875 401.78125 172.71875 C 402.03063 172.69105 402.12916 172.65625 402.40625 172.65625 C 402.60021 172.65625 402.64979 172.8125 402.84375 172.8125 L 403.84375 172.8125 C 403.84375 173.11729 403.81668 173.45166 404.09375 173.5625 C 404.45397 173.70104 404.83375 173.69874 405 174.03125 C 405.22167 174.55771 405.36562 174.91749 405.78125 175.25 C 406.11375 175.49938 406.20583 175.83021 406.59375 175.96875 C 406.84313 176.05185 407.16687 175.94167 407.25 176.21875 C 407.49938 176.88376 407.95999 177.21583 408.625 177.4375 C 409.51168 177.74229 409.55021 178.61624 410.1875 179.28125 C 410.68626 179.80771 411.33729 179.89749 411.53125 180.5625 C 411.61435 180.86729 411.55603 181.09083 411.75 181.3125 C 412.05479 181.70042 412.57021 181.52187 412.875 181.9375 C 413.01355 182.15917 413.27124 182.14979 413.4375 182.34375 C 413.60375 182.53771 413.52123 182.77125 413.6875 182.9375 C 414.40793 183.63022 414.77249 184.06083 415.4375 184.78125 C 415.68688 185.05834 415.99 185.07375 416.15625 185.40625 C 416.32251 185.79417 416.13271 186.16749 416.4375 186.5 C 416.60375 186.66625 416.79187 186.74353 416.875 186.9375 C 417.04125 187.29771 417.42458 187.27479 417.8125 187.46875 C 418.06188 187.57958 417.9033 187.96584 418.125 188.1875 C 418.62375 188.74168 418.70229 189.21353 419.0625 189.90625 C 419.17334 190.21104 419.21229 190.43458 419.40625 190.65625 C 419.60021 190.87792 419.95875 190.75417 420.125 191.03125 C 420.34667 191.30834 420.125 191.51479 420.125 191.875 C 420.59605 192.78939 421.27895 193.02312 421.75 193.9375 C 421.94396 194.27001 422.35437 194.23 422.4375 194.5625 C 422.63146 195.1998 422.99124 195.64271 423.65625 195.78125 C 424.23813 195.9475 424.10916 197 424.71875 197 C 424.99584 197 425.14979 196.85375 425.34375 196.6875 C 425.45459 196.79833 425.44101 196.9275 425.46875 197.09375 C 425.46875 197.73105 425.98354 197.9075 426.34375 198.40625 C 426.56542 198.71105 426.46229 199.01124 426.65625 199.34375 C 427.04417 199.8425 427.4375 200.15104 427.4375 200.84375 C 427.4375 201.48105 428.01833 201.68874 428.40625 202.1875 C 428.73876 202.57542 428.68104 202.90395 428.875 203.375 C 428.9027 203.4581 429.07312 203.42041 429.15625 203.53125 C 429.35021 203.6975 429.22582 203.90687 429.28125 204.15625 C 429.4475 204.79355 429.91396 204.98062 430.21875 205.5625 C 430.6898 206.44918 430.93166 206.89458 431.375 207.78125 C 431.51354 208.08605 431.95875 207.97291 432.125 208.25 C 432.31896 208.49938 432.23289 208.75063 432.34375 209 C 432.56542 209.41563 433.02833 209.33437 433.25 209.75 C 433.97042 211.57877 434.66645 212.48957 435.96875 213.875 C 436.7723 214.76168 437.27603 215.25603 437.96875 216.28125 C 438.38437 216.86313 438.43937 217.6875 439.1875 217.6875 C 439.8248 217.6875 439.27246 216.2948 439.9375 216.15625 C 440.29771 216.10085 440.57375 216.25644 440.90625 216.0625 C 441.18334 215.86854 441.11854 215.55833 441.3125 215.28125 C 442.14376 214.06207 442.51311 213.24043 443.59375 212.1875 C 444.75751 211.07915 444.81269 209.81771 446.28125 209.125 C 447.22334 208.68166 447.78187 208.18147 448.03125 207.15625 C 448.11435 206.79604 448.47229 206.67271 448.5 206.3125 C 448.5 206.06312 448.20458 206.00646 448.09375 205.8125 C 448.70334 204.26082 449.7802 203.79168 450.75 202.40625 C 451.19334 201.76895 451.37625 201.39438 451.875 200.8125 C 452.40147 200.23061 452.92458 200.13376 453.3125 199.46875 C 453.47876 199.16396 453.50062 198.94042 453.75 198.71875 C 454.96918 197.69353 455.47895 196.91085 456.78125 195.96875 C 457.03063 195.8025 456.97291 195.41979 457.25 195.28125 C 457.5548 195.08728 457.9275 195.33603 458.09375 195.03125 C 458.67563 194.19999 458.96416 193.55125 459.90625 193.21875 C 461.0146 192.66457 461.51249 192.17147 462.34375 191.3125 C 462.95334 190.70291 463.04374 189.80895 463.875 189.78125 C 464.40146 189.80895 464.66104 189.78125 465.1875 189.78125 C 465.90793 189.78125 466.07667 188.93918 466.1875 188.21875 C 466.29834 187.4152 466.74354 187.11605 466.9375 186.3125 C 467.10375 185.48124 467.68875 185.29001 468.1875 184.625 C 468.68626 183.9877 468.87687 183.38854 469.625 183.25 C 470.81648 182.36332 471.55082 181.81648 472.4375 180.625 C 472.93625 179.90458 472.55374 179.05063 473.21875 178.46875 C 473.57896 178.13625 474.22291 178.66917 474.5 178.28125 C 474.8325 177.89333 475.07083 177.46875 475.625 177.46875 C 475.87438 177.46875 475.90688 177.78125 476.15625 177.78125 C 476.59959 177.78125 476.39979 177.13438 476.59375 176.71875 C 477.00938 175.88749 477.26249 175.26647 478.09375 174.90625 C 479.42376 174.32437 479.51665 173.17501 480.625 172.34375 C 481.23459 171.92812 481.43521 171.52646 481.90625 171 C 482.23876 170.63978 482.66103 170.8125 483.1875 170.8125 C 483.35375 170.8125 483.48292 170.92042 483.59375 171.03125 C 483.62145 171.39147 483.625 171.60854 483.625 171.96875 C 483.5973 172.38438 482.94104 172.42813 482.96875 172.84375 C 482.96875 173.14855 483.47584 173.09791 483.53125 173.375 C 483.58665 173.76292 483.82667 173.88978 483.9375 174.25 L 483.875 174.53125 L 483.9375 174.8125 C 484.60251 174.8679 484.86979 175.40625 485.5625 175.40625 C 486.11668 175.40625 486.13333 174.53125 486.6875 174.53125 L 487.875 174.53125 C 487.9304 174.80834 487.90625 174.97291 487.90625 175.25 C 487.90625 176.27522 487.23167 176.71062 486.84375 177.625 C 486.56667 178.29001 486.5825 178.7377 486.25 179.375 C 486.11146 179.65208 485.85021 179.68812 485.65625 179.9375 C 485.26833 180.51938 485.10021 180.89749 484.90625 181.5625 C 485.21104 181.4794 485.32374 181.30896 485.65625 181.28125 C 486.34896 181.30895 487 181.80729 487 182.5 C 487 182.77709 486.75646 182.87208 486.5625 183.09375 L 486.59375 183.4375 C 487.00938 183.4375 487.28125 183.83437 487.28125 184.25 L 487.28125 184.8125 C 487.25355 185.11729 487.52479 185.24708 487.71875 185.46875 C 487.46937 186.10605 487.0648 186.27896 486.59375 186.75 C 486.23354 187.11022 486.23521 187.51479 485.875 187.875 C 485.54249 188.15209 485.25 188.33792 485.25 188.78125 C 485.25 190.05585 483.84897 190.29436 483.15625 191.375 C 482.85146 192.28938 481.875 192.55791 481.875 193.5 L 481.875 194.53125 C 481.07145 195.0023 480.85959 195.52603 480.25 196.21875 C 479.94521 196.60667 479.49229 196.52187 479.1875 196.9375 C 479.02124 197.24229 479.12086 197.55958 478.84375 197.78125 C 478.345 198.2523 478.21396 198.56021 477.6875 199.03125 C 477.46583 199.25292 477.11438 199.22645 477.03125 199.53125 C 476.94815 199.78063 477.07248 199.99354 476.90625 200.1875 C 476.51833 200.65854 475.99938 200.69937 475.75 201.28125 C 475.47292 201.94626 475.00584 202.12979 474.5625 202.65625 C 474.34083 202.90563 474.4475 203.15687 474.28125 203.40625 C 474.00416 203.87729 473.57896 203.95937 473.21875 204.375 C 472.94166 204.73521 473.02355 205.10146 472.71875 205.40625 C 472.38625 205.76646 472.03001 205.83021 471.53125 205.96875 C 471.14333 206.135 471.10375 206.49062 470.9375 206.90625 C 470.71583 207.37729 470.49583 207.61562 470.21875 208.03125 C 470.13565 208.25292 470.1875 208.40687 470.1875 208.65625 C 470.1875 208.87792 470 208.99709 470 209.21875 C 470 209.30185 470.0902 209.32313 470.0625 209.40625 C 470.0625 209.60022 469.84667 209.63208 469.625 209.6875 C 469.6527 209.82604 469.75 209.89625 469.75 210.0625 C 469.75 210.45042 469.36084 210.54604 469.25 210.90625 C 468.94521 211.82064 468.52584 212.29311 467.75 212.875 C 466.69707 213.62313 466.55584 214.9375 465.28125 214.9375 L 464.96875 214.9375 C 465.02415 215.21459 465.21875 215.34437 465.21875 215.59375 C 465.21875 216.12022 464.77 216.27187 464.4375 216.6875 C 463.8002 217.46334 463.51521 218.01541 462.65625 218.625 C 462.32374 218.84667 462.0725 218.95583 461.90625 219.34375 C 461.85085 219.78709 461.6073 219.96291 461.46875 220.40625 C 461.21938 221.23751 461.26521 222.34375 460.40625 222.34375 L 459.6875 222.34375 C 459.355 222.34375 459.23583 222.70228 459.125 223.0625 C 459.0419 223.395 458.82958 223.54249 458.71875 223.875 C 458.46937 224.56771 457.81771 224.63625 457.125 224.96875 C 456.45999 225.30126 456.50646 225.93582 456.3125 226.65625 C 456.14624 227.32126 455.46167 227.49479 455.40625 228.1875 C 455.32315 229.21272 454.42563 229.4777 453.84375 230.28125 C 453.28957 231.00168 452.91855 231.3627 452.28125 232 C 451.83792 232.36021 452.07188 232.98708 451.65625 233.375 C 451.43458 233.59667 451.13146 233.56666 450.9375 233.84375 C 451.15917 234.09313 451.44874 234.11499 451.78125 234.28125 C 451.6427 234.4475 451.4375 234.52833 451.4375 234.75 L 451.4375 235.09375 C 451.5206 235.12145 451.60792 235.15625 451.71875 235.15625 C 451.885 235.15625 451.96229 234.99646 452.15625 234.96875 C 452.3225 234.99645 452.4275 235.00355 452.59375 235.03125 C 452.62145 235.11435 452.625 235.23292 452.625 235.34375 C 452.625 235.42685 452.52417 235.4133 452.46875 235.46875 C 453.21689 236.05063 453.6875 236.61686 453.6875 237.53125 C 453.6875 238.44563 454.50541 238.71291 455.28125 239.15625 C 455.94625 239.54417 456.06729 240.04666 456.59375 240.65625 C 456.89855 241.01647 457.38978 240.85145 457.75 241.15625 C 458.13792 241.46104 458.0077 241.88978 458.3125 242.25 C 458.81125 242.80417 459.50062 242.84208 459.75 243.5625 C 459.88854 244.06126 460.47291 244.02895 460.75 244.5 C 461.02708 244.88792 460.92396 245.2477 461.0625 245.71875 C 461.25646 246.38375 461.95937 246.37978 462.375 246.90625 C 462.90146 247.59896 463.38041 247.83437 464.15625 248.25 C 464.35021 248.36084 464.55604 248.33018 464.75 248.46875 C 465.11022 248.71813 464.84142 249.46875 465.3125 249.46875 C 465.47875 249.49645 465.55249 249.375 465.71875 249.375 C 466.07896 249.375 466.45167 249.38979 466.5625 249.75 C 466.6456 250.0825 466.66747 250.53125 467 250.53125 C 467.3048 250.53125 467.34792 250.125 467.625 250.125 C 468.09605 250.1527 468.08791 250.8025 468.53125 250.96875 C 469.6673 251.4398 470.62333 251.44353 471.34375 252.46875 C 471.8148 253.13375 472.56437 252.87563 473.3125 253.125 C 474.22689 253.4298 474.70291 253.97061 475.3125 254.71875 C 475.645 255.05125 475.54895 255.36916 475.6875 255.8125 C 475.85375 256.20042 476.34791 256.10146 476.625 256.40625 C 476.76354 256.5725 476.71226 256.85083 476.90625 256.90625 C 477.48813 257.0725 477.93521 256.82376 478.40625 257.15625 C 479.1821 257.76584 479.36333 258.46291 480.25 258.90625 C 480.97043 259.26646 481.69104 259.5402 481.71875 260.34375 C 481.71875 260.8425 482.23354 260.95229 482.59375 261.3125 C 483.48043 262.19918 483.96291 262.77728 484.40625 263.96875 C 484.65563 264.63376 485.56604 264.68229 485.59375 265.375 C 485.56605 265.51355 485.47227 265.5802 485.5 265.71875 C 485.5 265.99583 485.75 266.09792 485.75 266.375 C 485.75 266.65209 485.65625 266.81312 485.65625 267.0625 C 485.65625 267.58897 486.40625 267.62624 486.40625 268.125 C 486.40625 268.7623 486.15625 269.1127 486.15625 269.75 C 486.15625 270.94147 486.875 271.59332 486.875 272.8125 C 486.875 273.03417 486.71521 273.08729 486.6875 273.28125 C 486.6875 273.69688 487.1875 273.79958 487.1875 274.1875 C 487.1875 274.8248 487.04417 275.25125 486.65625 275.75 C 486.51771 275.97167 486.21875 276.03541 486.21875 276.3125 C 486.19105 276.45104 486.4375 276.49 486.4375 276.65625 C 486.4375 277.48751 486.30355 278.28187 485.5 278.53125 L 485.1875 278.46875 C 484.82729 278.60729 485.1521 279.13271 484.875 279.4375 C 484.54249 279.82543 484.06126 279.61146 483.5625 279.75 C 483.11916 279.86083 483.30833 280.4175 483.03125 280.75 C 482.8927 280.88854 482.75646 280.84726 482.5625 280.875 C 482.06374 281.01354 481.99876 281.53125 481.5 281.53125 C 481.02896 281.53125 480.72105 281.69458 480.25 281.75 C 479.86208 281.8054 479.46875 281.92103 479.46875 282.28125 C 479.46875 282.41979 479.50355 282.48646 479.53125 282.625 C 479.53125 282.98521 479.29771 283.3125 478.9375 283.3125 C 478.77125 283.3125 478.6975 283.25 478.53125 283.25 C 477.81082 283.25 477.40438 283.5625 476.65625 283.5625 C 476.43458 283.5625 476.28417 283.45461 476.0625 283.34375 C 475.67458 283.92563 475.31772 284.46521 474.625 284.4375 C 474.20937 284.4375 473.98167 284.44105 473.59375 284.46875 C 473.20583 284.46875 473.11021 284.11792 472.75 284.0625 C 472.52833 284.58896 471.99522 284.625 471.46875 284.625 C 471.16396 284.625 471.15563 284.29834 470.90625 284.1875 C 470.29666 283.88271 469.88021 283.92333 469.1875 283.8125 C 468.85499 283.7571 468.86438 283.39854 468.78125 283.09375 C 468.615 282.42874 468.6373 281.77709 468 281.5 C 467.6675 281.36146 467.31188 281.6173 467.0625 281.3125 C 466.45291 280.53666 466.53938 279.48521 465.625 279.125 C 465.18166 278.95875 464.81188 279.04773 464.5625 278.6875 C 464.03604 278.02249 464.06418 277.35667 463.34375 276.96875 C 462.76187 276.63624 462.32834 276.62792 461.71875 276.40625 C 461.10916 276.18458 460.5 275.9498 460.5 275.3125 C 460.5 274.12102 459.79647 273.54646 458.9375 272.6875 C 458.57729 272.35499 458.55834 271.98167 458.28125 271.59375 C 457.8102 270.92874 457.33605 270.67855 457.03125 269.875 C 456.75417 269.15458 456.20334 268.94334 455.59375 268.5 C 455.37208 268.33375 455.41979 268.09667 455.28125 267.875 C 455.00416 267.43166 454.64146 267.36022 454.28125 267 C 453.33915 266.16874 452.62668 265.93501 451.90625 264.9375 C 451.62917 264.52187 451.13792 264.62084 450.75 264.34375 C 450.47291 264.12208 450.63854 263.8048 450.5 263.5 C 450.38917 263.27834 450.2152 263.18688 450.1875 262.9375 C 449.79957 260.9979 448.01708 260.43961 447.90625 258.5 C 447.90625 258.27833 447.65271 258.19042 447.625 257.96875 C 447.5696 257.35916 447.66915 256.90501 447.28125 256.40625 C 446.58853 255.54729 445.61667 255.56355 445.0625 254.59375 C 444.4252 253.95645 444.08543 253.59542 443.53125 252.875 C 443.28187 252.5702 443.33604 252.21813 443.03125 251.96875 C 442.31082 251.33145 441.79772 250.94918 441.4375 250.0625 C 441.32667 249.67458 440.90979 249.54417 440.9375 249.15625 C 440.9098 248.90687 440.90625 248.84312 440.90625 248.59375 C 440.32437 247.95645 439.83896 247.69272 439.3125 247 C 438.92458 246.50125 438.99937 246.01938 438.75 245.4375 C 437.4754 246.54585 437.48564 248.095 435.90625 248.59375 C 435.93395 248.76001 436.03125 248.86145 436.03125 249 C 436.03125 249.58188 435.43688 249.68874 435.1875 250.1875 C 434.855 250.88021 434.625 251.28311 434.625 252.03125 C 434.625 252.41917 434.06542 252.38625 433.84375 252.71875 C 433.56666 253.1898 433.07188 253.20229 432.65625 253.5625 C 432.35146 253.89501 432.29771 254.22291 431.9375 254.5 C 431.9652 254.5831 432 254.63562 432 254.71875 C 432 255.8548 430.36668 255.68645 429.8125 256.65625 C 429.67396 256.90563 429.44042 256.9275 429.21875 257.09375 C 428.58145 257.5648 428.28293 257.98354 427.5625 258.34375 C 427.06375 258.62083 427.12438 259.12979 426.875 259.65625 C 426.59791 260.15501 426.25646 260.41458 426.0625 260.96875 C 425.72999 261.82772 425.65084 262.53958 424.875 263.09375 C 424.34853 263.50938 423.98459 263.72291 423.375 264 C 422.93166 264.16625 423.02709 264.63979 422.75 265 C 422.47291 265.41563 422.01647 265.38624 421.65625 265.71875 C 421.04666 266.24521 420.68563 266.62916 419.9375 266.90625 C 419.05082 267.21104 418.8796 268.1875 417.9375 268.1875 C 417.74354 268.2152 417.72167 267.9723 417.5 268 C 417.05666 267.9723 416.94688 268.39625 416.53125 268.5625 C 416.28188 268.6456 416.07959 268.64977 415.96875 268.84375 C 415.88565 269.06542 415.9858 269.27833 415.875 269.5 C 415.68104 269.97105 415.16563 269.88979 414.75 270.25 C 414.08499 270.83189 413.85543 271.62146 412.96875 271.59375 C 412.66395 271.62145 412.56542 271.31542 412.34375 271.09375 C 412.26065 271.37084 412.38854 271.59437 412.25 271.84375 C 411.9175 272.50875 411.29001 272.60146 410.625 272.90625 C 410.12625 273.12792 410.15501 273.71229 409.65625 273.90625 C 409.46229 273.98935 409.29479 273.95519 409.15625 274.09375 C 408.79603 274.45396 409.04833 274.87979 408.9375 275.40625 C 408.8821 275.65563 408.56187 275.63917 408.3125 275.75 C 407.75832 276.02709 407.37729 276.17103 406.90625 276.53125 C 406.57374 276.75292 406.30125 276.71229 405.96875 276.90625 C 405.24833 277.23875 405.00168 277.69521 404.28125 278 C 403.97646 278.11084 403.77355 278.04894 403.46875 278.1875 C 403.19167 278.29833 403.14855 278.60083 402.84375 278.65625 C 402.17875 278.8225 401.82125 278.99 401.15625 279.15625 C 400.76833 279.23935 400.63438 279.6527 400.21875 279.625 C 400.0525 279.6527 399.9475 279.5 399.78125 279.5 C 399.44874 279.5 399.46459 279.86145 399.1875 280 C 398.43937 280.41563 397.92501 280.53125 397.09375 280.53125 C 396.3179 280.53125 395.88022 280.30479 395.1875 280 C 394.91041 279.88916 394.83605 279.625 394.53125 279.625 C 394.28187 279.625 394.12438 279.65625 393.875 279.65625 C 393.21 279.65625 392.8873 279.1875 392.25 279.1875 C 391.86208 279.1875 391.66917 279.28125 391.28125 279.28125 C 390.75479 279.28125 390.56126 278.79834 390.0625 278.6875 L 389.59375 278.875 C 389.28896 278.76417 389.27709 278.45458 389 278.34375 C 388.6675 278.20521 388.41271 278.1798 388.21875 277.875 C 387.96937 277.51479 388.15564 277.10667 387.90625 276.71875 C 387.7677 276.49708 387.40625 276.52355 387.40625 276.21875 C 387.40625 275.66458 387.6675 275.34959 388 274.90625 C 388.38792 274.40749 387.93814 273.83188 388.1875 273.25 C 388.43688 272.64041 388.98645 272.44626 389.125 271.78125 C 389.1527 271.28249 388.97999 270.88792 389.3125 270.5 C 389.56187 270.19521 389.89687 270.21167 390.3125 270.15625 C 390.81125 270.10085 390.8727 269.57605 391.34375 269.4375 C 392.00876 269.21584 392.21292 268.67563 392.65625 268.09375 C 393.18272 267.45645 393.48416 267.14438 394.09375 266.5625 C 394.26001 265.75894 394.98416 265.71751 395.59375 265.21875 C 396.03709 264.85854 396.10499 264.44334 396.4375 264 C 397.18563 262.97478 397.9777 262.65731 398.78125 261.6875 C 399.64022 260.60687 400.05144 259.86959 401.1875 259.09375 C 401.79709 258.73354 402.09499 258.43271 402.59375 257.90625 C 402.89854 257.57374 403.4375 257.53355 403.4375 257.0625 C 403.4098 256.95167 403.34375 256.86083 403.34375 256.75 C 403.34375 256.14041 404.00125 256.08251 404.5 255.75 C 405.05418 255.36208 405.29312 254.98875 405.875 254.65625 C 406.29063 254.24062 406.63979 254.13083 407 253.6875 C 407.3048 253.35499 407.23 252.99584 407.5625 252.71875 C 408.47689 251.99833 409.17645 251.62146 410.3125 251.59375 C 410.3402 251.48291 410.40625 251.4198 410.40625 251.28125 L 410.40625 250.5625 C 410.40625 249.70353 411.3002 249.55417 411.9375 249 C 412.32542 248.66749 412.30312 248.24229 412.71875 247.9375 C 412.91271 247.77125 413.20875 247.87794 413.375 247.65625 C 413.62438 247.32375 413.53895 246.90209 413.84375 246.625 C 414.39792 246.04312 415.1875 245.90084 415.1875 245.125 C 415.1875 244.73707 415.18395 244.54417 415.15625 244.15625 C 415.15625 243.46354 415.95228 243.39084 416.3125 242.78125 C 416.81125 242.14395 417.55666 242.25876 418 241.59375 C 418.80355 240.42998 418.79436 239.39376 419.875 238.5625 C 420.31834 238.2577 420.69875 238.16209 421.03125 237.71875 C 421.19751 237.52479 421.14979 237.29125 421.34375 237.125 C 421.62084 236.87562 422.03188 237.12085 422.28125 236.84375 C 422.47521 236.62208 422.3508 236.33605 422.40625 236.03125 C 422.51708 235.47708 422.7477 235.1173 423.21875 234.8125 C 423.57896 234.34145 423.98 234.24876 424.3125 233.75 C 425.50397 231.92123 426.5379 231.21086 427.8125 229.4375 C 427.25833 228.88333 427.22397 228.23875 426.53125 227.90625 C 426.365 227.82315 426.23229 227.98935 426.09375 227.90625 C 425.73353 227.74 425.71875 227.38792 425.71875 227 L 425.71875 226.3125 C 425.71875 226.03541 425.36792 225.93333 425.3125 225.65625 C 425.2294 225.10208 425.30417 224.375 424.75 224.375 C 424.22354 224.375 423.99522 224.71875 423.46875 224.71875 C 422.52666 224.71875 421.92563 224.27939 421.34375 223.53125 C 420.98354 223.06021 420.5625 222.83188 420.5625 222.25 C 420.5625 222.02833 420.55895 221.90563 420.53125 221.65625 C 420.6975 221.62855 420.77125 221.625 420.9375 221.625 C 421.10375 221.625 421.23999 221.65625 421.40625 221.65625 C 421.51708 221.65625 421.56959 221.62145 421.625 221.59375 C 421.6804 221.73229 421.72938 221.82667 421.8125 221.9375 C 421.8956 221.82667 422.03125 221.7948 422.03125 221.65625 C 422.03125 221.32375 421.71875 221.17271 421.71875 220.8125 C 421.38625 220.8956 421.36376 221.3125 421.03125 221.3125 C 420.42166 221.3125 420.23521 220.65854 419.875 220.1875 C 418.65582 219.91041 418.48105 218.89668 417.84375 217.84375 C 417.12333 216.62457 416.34834 216.26814 415.40625 215.1875 C 414.51957 214.18999 413.86605 213.67439 413.0625 212.59375 C 412.36979 211.67936 411.3125 211.32001 411.3125 210.15625 C 411.3125 210.04541 411.41331 209.95105 411.46875 209.8125 L 411.40625 209.6875 C 411.2677 209.6598 411.20458 209.59375 411.09375 209.59375 C 410.9275 209.59375 410.88146 209.8125 410.6875 209.8125 C 410.29958 209.8125 409.99229 209.77709 409.6875 209.5 C 409.355 208.89041 409.16147 208.21875 408.46875 208.21875 C 408.3025 208.21875 408.22875 208.34375 408.0625 208.34375 C 407.81312 208.34375 407.9717 207.91626 407.75 207.75 C 407.58375 207.55604 407.2948 207.65917 407.15625 207.4375 C 406.99 207.07729 406.97875 206.82896 406.8125 206.46875 C 406.64625 206.19166 406.29771 206.27417 405.9375 206.21875 C 405.43875 206.13565 405.08666 205.81126 405.03125 205.3125 C 404.97585 204.45354 404.53646 203.97105 403.84375 203.5 C 403.42812 203.19521 403.21105 202.91209 402.90625 202.46875 C 402.74 202.21938 402.7423 201.84375 402.4375 201.84375 C 402.29896 201.87145 402.20105 201.9375 402.0625 201.9375 C 401.48062 201.9375 401.26938 201.45812 400.6875 201.375 C 400.6875 200.65457 400.27417 200.28646 400.21875 199.59375 C 399.91396 199.59375 399.77355 199.36792 399.46875 199.3125 C 398.80374 199.14625 397.8125 199.37666 397.8125 198.65625 C 397.7571 198.10208 397.2075 197.97105 396.875 197.5 C 396.65333 197.25062 396.15625 197.33251 396.15625 197 L 396.15625 196.375 C 395.29728 196.01479 394.56417 196.14084 393.84375 195.53125 C 393.62208 195.33729 393.72521 195.06542 393.53125 194.84375 C 393.17104 194.34499 393.03416 194.02292 392.8125 193.46875 C 392.61854 192.9977 392.01293 193.20396 391.625 192.84375 C 391.40333 192.62208 391.18334 192.6073 390.90625 192.46875 C 390.60145 192.33021 390.61375 191.86437 390.28125 191.78125 C 390.03187 191.39333 389.47167 191.61022 389.25 191.25 C 389.11146 191.00063 389.31893 190.76 389.125 190.59375 C 389.01416 190.48291 388.82604 190.55189 388.6875 190.46875 C 388.35499 190.24708 388.20396 189.90625 387.84375 189.90625 C 387.84375 189.21353 386.78125 189.16147 386.78125 188.46875 L 386.78125 187.5 C 386.78125 187.30604 386.87855 187.22521 386.90625 187.03125 C 386.90625 186.69875 386.47167 186.77354 386.25 186.46875 L 384.40625 186.46875 C 384.40625 186.16395 384.43395 185.98875 384.40625 185.65625 C 384.43395 184.93582 384.67395 184.53292 384.8125 183.8125 C 384.95104 183.11978 384.90685 182.73105 385.15625 182.09375 C 385.93209 181.04082 386.47416 180.58772 387.25 179.5625 C 387.5825 179.14687 388.15625 179.08896 388.15625 178.5625 L 388.15625 177.8125 C 388.15625 176.64874 389.43582 176.51522 390.15625 175.65625 C 390.54417 175.1852 390.40041 174.69334 390.84375 174.25 C 391.23167 173.83437 391.67812 173.9575 392.09375 173.625 C 393.5346 172.87686 394.12873 171.98459 395.625 171.375 C 396.15146 171.15333 396.17166 170.375 396.78125 170.375 C 396.91979 170.375 396.98291 170.48292 397.09375 170.59375 L 398 170.59375 C 398.41563 170.59375 398.61208 170.3125 399 170.3125 z "
     id="path2826" />
</svg>
