<?xml version="1.0" encoding="UTF-8" standalone="no"?>
<svg
   xmlns:dc="http://purl.org/dc/elements/1.1/"
   xmlns:cc="http://creativecommons.org/ns#"
   xmlns:rdf="http://www.w3.org/1999/02/22-rdf-syntax-ns#"
   xmlns:svg="http://www.w3.org/2000/svg"
   xmlns="http://www.w3.org/2000/svg"
   xmlns:sodipodi="http://sodipodi.sourceforge.net/DTD/sodipodi-0.dtd"
   xmlns:inkscape="http://www.inkscape.org/namespaces/inkscape"
   width="142.65625"
   height="43.4375"
   viewBox="0 0 142.65613 43.437936"
   id="svg2"
   version="1.1"
   inkscape:version="0.48.4 r9939"
   sodipodi:docname="ONE HD.svg">
  <metadata
     id="metadata10">
    <rdf:RDF>
      <cc:Work
         rdf:about="">
        <dc:format>image/svg+xml</dc:format>
        <dc:type
           rdf:resource="http://purl.org/dc/dcmitype/StillImage" />
      </cc:Work>
    </rdf:RDF>
  </metadata>
  <defs
     id="defs8" />
  <sodipodi:namedview
     pagecolor="#ffffff"
     bordercolor="#666666"
     borderopacity="1"
     objecttolerance="10"
     gridtolerance="10"
     guidetolerance="10"
     inkscape:pageopacity="0"
     inkscape:pageshadow="2"
     inkscape:window-width="1440"
     inkscape:window-height="826"
     id="namedview6"
     showgrid="false"
     fit-margin-top="0"
     fit-margin-left="0"
     fit-margin-right="0"
     fit-margin-bottom="0"
     inkscape:zoom="2.0268405"
     inkscape:cx="106.80326"
     inkscape:cy="41.453149"
     inkscape:window-x="0"
     inkscape:window-y="25"
     inkscape:window-maximized="1"
     inkscape:current-layer="svg2" />
  <path
     style="line-height:125%;fill:#ffffff;fill-opacity:1;-inkscape-font-specification:TheSansBlack-Plain Medium"
     d="m 127.84387,0 c -8.18,0 -14.81265,6.6536483 -14.81265,14.812648 0,8.208 6.63265,14.875149 14.81265,14.875149 8.176,0 14.81265,-6.667149 14.81265,-14.875149 C 142.65652,6.6526484 136.01987,0 127.84387,0 z m 0,2.1875219 c 6.943,0 12.65638,5.6631264 12.65638,12.6251261 0,7.01 -5.71238,12.687627 -12.65638,12.687627 -6.943,0 -12.65638,-5.677627 -12.65638,-12.687627 0,-6.9619997 5.71438,-12.6251261 12.65638,-12.6251261 z m 6.00006,3.8125381 -14.9689,5.343803 0,3.687537 4.93755,-1.781267 0,11.156361 10.03135,-3.562536 0,-14.843898 z m -41.031661,0.6562566 0,0.03125 c -5.586,0 -9.91688,1.7145519 -12.96888,5.1875521 -3.004,3.474999 -4.500045,8.054637 -4.500045,13.687637 0,6.103 1.573798,10.590135 4.718797,13.500135 3.146,2.91 7.741138,4.375043 13.750138,4.375043 2.149999,0 4.425069,-0.248757 6.875071,-0.718757 2.48,-0.42 4.69506,-1.000018 6.62506,-1.750017 l -1.12501,-9.593846 c -1.73999,0.749999 -3.4888,1.338767 -5.2188,1.718767 -1.689997,0.33 -3.395051,0.468755 -5.125051,0.468755 -2.44,0 -4.292556,-0.387512 -5.562556,-1.187512 -1.22,-0.846001 -1.878769,-1.937033 -1.968769,-3.250033 l 19.843946,0 c 0.28201,-1.926 0.40626,-3.763054 0.40626,-5.500055 0,-5.164999 -1.30855,-9.260623 -3.93754,-12.312623 -2.63,-3.0969997 -6.553622,-4.6562964 -11.812621,-4.6562964 z m -73.656987,0.093751 c -5.539999,0 -10.1038868,1.7613029 -13.718887,5.2813025 -3.6149998,3.523001 -5.43755434,8.225892 -5.43755434,14.093891 0,6.103 1.49404514,10.494882 4.50004504,13.218882 3.0499999,2.720001 7.3663793,4.093791 12.9063793,4.093791 5.397,0 9.931886,-1.759302 13.593886,-5.281302 3.661999,-3.520001 5.468804,-8.147139 5.468804,-13.875139 0,-5.633 -1.477544,-9.96288 -4.437544,-12.96888 -2.91,-3.0499998 -7.195129,-4.5625455 -12.875129,-4.5625455 z m 42.906679,0 c -2.488,0 -4.667815,0.5285157 -6.593816,1.5625156 -1.876999,0.9849999 -3.436296,2.2955389 -4.656296,3.9375399 0.14,-0.75 0.231253,-1.576775 0.281253,-2.4687752 0.04,-0.94 0.0625,-1.6725219 0.0625,-2.1875219 l -11.843868,0 0,35.0003501 12.843878,0 0,-17.03142 c 0,-1.973 0.561517,-3.794554 1.687517,-5.437555 1.128,-1.69 2.372288,-2.531275 3.781288,-2.531275 1.312,0 1.96877,0.945028 1.96877,2.875029 l 0,22.125221 12.812628,0 0,-24.781498 c 0,-3.334 -0.793524,-6.01133 -2.437525,-8.0313302 -1.594,-2.0099999 -4.246329,-3.0312803 -7.906329,-3.0312803 z M 92.531016,15.96891 c 2.396,0 3.593786,1.635049 3.593786,4.875048 l -7.875079,0 c 0,-1.455999 0.389512,-2.639285 1.187512,-3.531285 0.798,-0.892 1.826781,-1.343763 3.093781,-1.343763 z m -74.156992,1.750017 0,0.03125 c 1.736001,0 2.953287,0.577017 3.656287,1.750017 0.751999,1.175 1.125011,3.026555 1.125011,5.562556 0,2.249999 -0.420513,4.023803 -1.312513,5.343803 -0.845,1.26 -2.108037,1.906269 -3.750037,1.906269 -1.737001,0 -2.967788,-0.567517 -3.718788,-1.687517 -0.704,-1.18 -1.06251,-3.167559 -1.06251,-5.937559 0,-2.3 0.478765,-4.017552 1.468764,-5.187552 0.98,-1.18 2.183786,-1.781268 3.593786,-1.781268 z"
     id="path4"
     inkscape:connector-curvature="0" />
</svg>
