<?xml version="1.0" encoding="UTF-8" standalone="no"?>
<!-- Created with Inkscape (http://www.inkscape.org/) -->

<svg
   xmlns:dc="http://purl.org/dc/elements/1.1/"
   xmlns:cc="http://creativecommons.org/ns#"
   xmlns:rdf="http://www.w3.org/1999/02/22-rdf-syntax-ns#"
   xmlns:svg="http://www.w3.org/2000/svg"
   xmlns="http://www.w3.org/2000/svg"
   xmlns:sodipodi="http://sodipodi.sourceforge.net/DTD/sodipodi-0.dtd"
   xmlns:inkscape="http://www.inkscape.org/namespaces/inkscape"
   id="svg2403"
   sodipodi:version="0.32"
   inkscape:version="0.48.4 r9939"
   width="200.63275"
   height="189.55576"
   xml:space="preserve"
   sodipodi:docname="RTL2.svg"
   version="1.0"
   inkscape:output_extension="org.inkscape.output.svg.inkscape"><metadata
     id="metadata2408"><rdf:RDF><cc:Work
         rdf:about=""><dc:format>image/svg+xml</dc:format><dc:type
           rdf:resource="http://purl.org/dc/dcmitype/StillImage" /></cc:Work></rdf:RDF></metadata><defs
     id="defs2406"><inkscape:perspective
       sodipodi:type="inkscape:persp3d"
       inkscape:vp_x="0 : 526.18109 : 1"
       inkscape:vp_y="0 : 1000 : 0"
       inkscape:vp_z="744.09448 : 526.18109 : 1"
       inkscape:persp3d-origin="372.04724 : 350.78739 : 1"
       id="perspective2410" /><clipPath
       clipPathUnits="userSpaceOnUse"
       id="clipPath2436"><path
         d="M 0,0 L 841.89,0 L 841.89,595.276 L 0,595.276 L 0,0 z"
         id="path2438" /></clipPath></defs><sodipodi:namedview
     inkscape:window-height="826"
     inkscape:window-width="1440"
     inkscape:pageshadow="2"
     inkscape:pageopacity="0"
     guidetolerance="10.0"
     gridtolerance="10.0"
     objecttolerance="10.0"
     borderopacity="1.0"
     bordercolor="#666666"
     pagecolor="#ffffff"
     id="base"
     showgrid="false"
     inkscape:zoom="1.0756749"
     inkscape:cx="82.810319"
     inkscape:cy="101.52658"
     inkscape:window-x="0"
     inkscape:window-y="25"
     inkscape:current-layer="g2412"
     showguides="true"
     inkscape:guide-bbox="true"
     inkscape:window-maximized="1" /><g
     id="g2412"
     inkscape:groupmode="layer"
     inkscape:label="31528"
     transform="matrix(1.25,0,0,-1.25,-431.42,526.65213)"><text
       transform="matrix(1,0,0,-1,795.1181,36.152)"
       id="text2422"><tspan
         style="font-size:9px;font-variant:normal;font-weight:normal;font-stretch:normal;writing-mode:lr-tb;fill:#231f20;fill-opacity:1;fill-rule:nonzero;stroke:none;font-family:Helvetica Neue;-inkscape-font-specification:HelveticaNeue"
         x="0"
         y="0"
         id="tspan2424">3</tspan></text>
<path
       style="fill:#ffffff;fill-opacity:1;fill-rule:nonzero;stroke:none"
       d="M 99.84375 0 C 60.78 0 29.125 31.65125 29.125 70.71875 C 29.125 109.785 60.78 141.46875 99.84375 141.46875 C 138.905 141.46875 170.59375 109.785 170.59375 70.71875 C 170.59375 31.65125 138.905 0 99.84375 0 z M 70.625 41.0625 L 93.21875 41.0625 L 93.21875 100.03125 L 70.625 100.03125 L 70.625 41.0625 z M 106.96875 41.0625 L 129.5625 41.0625 L 129.5625 100.03125 L 106.96875 100.03125 L 106.96875 41.0625 z "
       id="path2442"
       transform="matrix(0.8,0,0,-0.8,345.136,421.3217)" /><g
       id="g2444"
       transform="translate(383.432,294.5141)"
       style="fill:#ffffff"><path
         d="m 0,0 c 7.513,0 7.226,-7.912 7.226,-7.912 0,-8.214 -8.893,-8.557 -8.893,-8.557 l 10.691,-8.368 -15.68,0 -8.555,9.193 -4.972,0 -0.019,-9.193 -18.094,0 0,24.837 C -38.296,0 -7.52,0.007 0,0.007 0,0.007 -7.52,0 0,0 m -20.202,-4.953 0,-5.847 7.484,0.004 c 0,0 3.046,0.246 3.046,3.07 0,2.823 -2.479,2.773 -2.63,2.773 l -7.9,0 z"
         style="fill:#ffffff;fill-opacity:1;fill-rule:nonzero;stroke:none"
         id="path2446"
         inkscape:connector-curvature="0" /></g><g
       id="g2448"
       transform="translate(403.5082,294.5157)"
       style="fill:#ffffff"><path
         d="M 0,0 L 43.965,0 L 43.969,-4.843 L 31.027,-4.843 L 31.027,-24.836 L 12.935,-24.836 L 12.931,-4.843 L -0.003,-4.843 L 0,0 z"
         style="fill:#ffffff;fill-opacity:1;fill-rule:nonzero;stroke:none"
         id="path2450" /></g><g
       id="g2452"
       transform="translate(465.0812,269.6776)"
       style="fill:#ffffff"><path
         d="M 0,0 L 40.561,0 L 40.561,4.85 L 18.096,4.846 L 18.096,24.837 L 0,24.837 L 0,0 z"
         style="fill:#ffffff;fill-opacity:1;fill-rule:nonzero;stroke:none"
         id="path2454" /></g></g></svg>