<?xml version="1.0" encoding="UTF-8" standalone="no"?>
<!-- Created with Inkscape (http://www.inkscape.org/) -->

<svg
   xmlns:dc="http://purl.org/dc/elements/1.1/"
   xmlns:cc="http://creativecommons.org/ns#"
   xmlns:rdf="http://www.w3.org/1999/02/22-rdf-syntax-ns#"
   xmlns:svg="http://www.w3.org/2000/svg"
   xmlns="http://www.w3.org/2000/svg"
   xmlns:sodipodi="http://sodipodi.sourceforge.net/DTD/sodipodi-0.dtd"
   xmlns:inkscape="http://www.inkscape.org/namespaces/inkscape"
   version="1.1"
   width="395.13815"
   height="115.71902"
   id="svg2"
   inkscape:version="0.48.4 r9939"
   sodipodi:docname="ZDFinfo HD.svg">
  <sodipodi:namedview
     pagecolor="#ffffff"
     bordercolor="#666666"
     borderopacity="1"
     objecttolerance="10"
     gridtolerance="10"
     guidetolerance="10"
     inkscape:pageopacity="0"
     inkscape:pageshadow="2"
     inkscape:window-width="1440"
     inkscape:window-height="826"
     id="namedview3863"
     showgrid="false"
     fit-margin-top="0"
     fit-margin-left="0"
     fit-margin-right="0"
     fit-margin-bottom="0"
     inkscape:zoom="0.78918688"
     inkscape:cx="271.86725"
     inkscape:cy="57.85952"
     inkscape:window-x="0"
     inkscape:window-y="25"
     inkscape:window-maximized="1"
     inkscape:current-layer="svg2" />
  <metadata
     id="metadata8">
    <rdf:RDF>
      <cc:Work
         rdf:about="">
        <dc:format>image/svg+xml</dc:format>
        <dc:type
           rdf:resource="http://purl.org/dc/dcmitype/StillImage" />
        <dc:title />
      </cc:Work>
    </rdf:RDF>
  </metadata>
  <defs
     id="defs6" />
  <g
     style="fill:#ff7e09;fill-opacity:1"
     id="g4360"
     transform="scale(0.70560383,0.70560383)">
    <path
       inkscape:connector-curvature="0"
       style="fill:#ff7e09;fill-opacity:1;stroke:none"
       id="path2995"
       d="m 2.5,52 81,0 0,17.5 -52.5,55.5 31.5,0 0,-18 21,0 0,36 L 0,143 0,126 52.6,70.4 24,70.4 24,87 2.5,87" />
    <path
       inkscape:connector-curvature="0"
       style="fill:#ff7e09;fill-opacity:1;stroke:none"
       id="path3015"
       d="m 197,143 49,0 0,-19 -13,0 0,-52 17,0 0,-20 -17,0 0,-4 c 0,-7.326383 0.78305,-8 7,-8 l 11.5,0 0,-19 -23.5,0 c -12.50584,0 -19,7.666334 -19,19 l 0,12 -12.5,0 0,20 12.5,0 0,52 -12,0" />
    <g
       style="font-size:40px;font-style:normal;font-variant:normal;font-weight:normal;font-stretch:normal;line-height:125%;letter-spacing:0px;word-spacing:0px;fill:#ff7e09;fill-opacity:1;stroke:none;font-family:Playbill;-inkscape-font-specification:Playbill"
       id="text3011"
       transform="matrix(10.418802,0,0,4.5468231,1319.3233,438.74774)">
      <path
         inkscape:connector-curvature="0"
         style="fill:#ff7e09;fill-opacity:1"
         id="path3042"
         d="m -109.83252,-91.87684 0,22.543212 1.19975,0 0,4.288709 -3.59926,0 0,-2.5166 c -1.16253,2.5166 -1.53586,2.5166 -2.63946,2.5166 -1.38685,0 -2.83142,0.468143 -2.83142,-7.819748 l 0,-3.885061 c 0,-8.009994 1.16209,-8.309165 2.83142,-8.309165 1.48316,0 1.71965,0.399734 2.63947,2.199338 l -3e-5,-4.728577 -1.15177,0 3e-5,-4.288708 z m -4.74016,11.201153 c -0.75546,0.02748 -0.77349,1.595612 -0.7753,3.14388 l -0.007,5.831322 c -0.002,1.711274 0.41993,2.337095 0.5799,2.342059 l 1.33625,0.04146 c 0.40787,0.01265 1.20662,-0.652102 1.20662,-0.652102 l 0,-9.921381 c 0,0 -0.51823,-0.851522 -1.26085,-0.824512 z" />
    </g>
  </g>
  <path
     d="m 210.06834,0 170.45373,0 c 8.0973,0 14.61607,6.5187712 14.61607,14.616079 l 0,86.486871 c 0,8.09731 -6.51877,14.61608 -14.61607,14.61608 l -170.45373,0 c -8.09731,0 -14.61608,-6.51877 -14.61608,-14.61608 l 0,-16.43049 -20.46251,-20.462511 20.46251,0 0,-49.59387 C 195.45226,6.5187712 201.97103,0 210.06834,0 z"
     id="rect2997"
     style="fill:#999999;fill-opacity:1;stroke:none"
     inkscape:connector-curvature="0" />
  <g
     style="fill:#ffffff"
     id="g3005"
     transform="scale(0.70560383,0.70560383)">
    <path
       inkscape:connector-curvature="0"
       style="fill:#ffffff;stroke:none"
       id="path3000"
       d="m 303.5,76.5 28,0 0,52 9,0 0,15 -37,0 -0.0178,-15.12499 9.51786,0.125 0,-37 -9.5,0" />
    <path
       inkscape:connector-curvature="0"
       style="fill:#ffffff;fill-opacity:1;stroke:none"
       id="rect3002"
       d="m 312,52 19,0 0,16 -19,0 z" />
  </g>
  <path
     inkscape:connector-curvature="0"
     style="fill:#ffffff;stroke:none"
     id="path3009"
     d="m 245.19733,53.978693 19.0513,0 0,5.997633 c 7.69111,-6.530648 9.15605,-5.999958 14.30985,-5.997633 10.49394,0.0047 13.55098,2.318839 13.56151,12.348067 l 0,24.343332 6.35043,0 0,10.584058 -24.34333,0 0,-10.584058 4.93922,0 0,-22.22652 c 0,-3.482279 -1.05955,-4.177325 -6.35043,-4.233623 -2.86791,-0.03052 -5.28491,0.455605 -8.46725,2.116811 l 0,24.343332 4.93923,0 0,10.584058 -24.34333,0 0,-10.584058 6.35043,0 0,-26.460143 -5.99763,0" />
  <path
     inkscape:connector-curvature="0"
     style="fill:#ffffff;fill-opacity:1;stroke:none"
     id="rect3017"
     d="m 345.35528,53.978693 20.89091,0 c 6.03807,0 10.89906,6.827851 10.89906,15.309083 l 0,16.657289 c 0,8.481232 -4.86099,15.309085 -10.89906,15.309085 l -20.89091,0 c -6.03808,0 -10.89906,-6.827853 -10.89906,-15.309085 l 0,-16.657289 c 0,-8.481232 4.86098,-15.309083 10.89906,-15.309083 z" />
  <path
     inkscape:connector-curvature="0"
     style="fill:#999999;fill-opacity:1;stroke:none"
     id="rect3020"
     d="m 349.85217,64.209949 11.89712,0 c 1.29763,0 2.34229,3.287483 2.34229,7.371041 l 0,11.718061 c 0,4.083555 -1.04466,7.371041 -2.34229,7.371041 l -11.89712,0 c -1.29762,0 -2.34228,-3.287486 -2.34228,-7.371041 l 0,-11.718061 c 0,-4.083558 1.04466,-7.371041 2.34228,-7.371041 z" />
  <path
     inkscape:connector-curvature="0"
     style="fill:#ffffff;stroke:none"
     id="path3015-8"
     d="m 302.96383,101.25415 25.84755,0 0,-10.584058 -6.70323,0 0,-26.306191 8.82005,0 0,-10.39162 -8.82005,0 0,-2.078323 c 0,-3.806648 0.32038,-4.156612 3.5506,-4.156648 l 5.97505,-6.8e-5 0,-9.872039 -12.56295,6.8e-5 c -6.4978,3.4e-5 -9.87204,3.983279 -9.87204,9.872039 l 0,6.234971 -6.49477,0 0,10.39162 6.49477,0 0,26.306191 -6.23498,0" />
</svg>
